<?xml version="1.0" standalone="no"?>
<!DOCTYPE svg PUBLIC "-//W3C//DTD SVG 20010904//EN"
 "http://www.w3.org/TR/2001/REC-SVG-20010904/DTD/svg10.dtd">
<svg version="1.0" xmlns="http://www.w3.org/2000/svg"
 width="700.000000pt" height="700.000000pt" viewBox="0 0 700.000000 700.000000"
 preserveAspectRatio="xMidYMid meet">
<metadata>
Created by potrace 1.14, written by Peter Selinger 2001-2017
</metadata>
<g transform="translate(0.000000,700.000000) scale(0.100000,-0.100000)"
fill="#000000" stroke="none">
<path d="M5960 6972 c-144 -8 -330 -81 -437 -171 -99 -84 -3197 -3189 -3211
-3218 -9 -22 -150 -520 -167 -593 -2 -8 -32 -114 -66 -235 -34 -121 -67 -242
-74 -270 -7 -27 -30 -108 -50 -180 -69 -244 -73 -265 -63 -308 12 -56 41 -92
94 -117 61 -30 85 -26 374 55 129 37 242 68 250 70 34 7 861 238 939 261 l85
26 1576 1576 c867 868 1596 1602 1621 1632 178 221 217 545 98 808 -16 35 -50
93 -75 129 -52 73 -301 325 -379 384 -136 103 -337 162 -515 151z m165 -364
c86 -22 140 -61 283 -202 79 -77 157 -161 173 -186 89 -135 90 -331 2 -467
-17 -26 -79 -96 -138 -154 l-106 -107 -411 411 -410 411 118 116 c68 66 142
127 172 143 93 50 211 63 317 35z m-578 -820 c148 -147 330 -329 406 -406
l138 -138 -1273 -1272 -1272 -1273 -410 410 -411 411 1270 1270 c698 698 1273
1269 1277 1268 4 -2 128 -123 275 -270z m-2339 -3253 c-3 -3 -14 -8 -24 -10
-27 -6 -129 -34 -344 -94 -102 -29 -207 -58 -235 -66 -27 -7 -101 -27 -163
-44 -62 -17 -116 -31 -121 -31 -5 0 2 39 16 88 14 48 35 125 48 172 12 47 57
208 99 358 42 149 76 275 76 279 0 4 147 -140 327 -320 180 -179 325 -329 321
-332z"/>
<path d="M817 6294 c-1 -1 -27 -4 -57 -8 -213 -23 -445 -156 -579 -332 -61
-81 -121 -200 -153 -304 l-23 -75 -2 -2385 c-1 -1471 2 -2408 8 -2445 59 -372
351 -663 729 -725 76 -12 5146 -10 5195 3 190 48 317 118 441 241 118 118 188
241 231 404 l26 97 0 855 c1 950 5 890 -66 944 -89 68 -215 39 -262 -61 -17
-36 -19 -89 -20 -873 -1 -618 -4 -846 -13 -876 -43 -147 -127 -255 -257 -329
-130 -74 95 -68 -2695 -68 -2254 0 -2511 2 -2566 16 -176 46 -301 155 -370
322 l-29 70 -2 2365 c-3 2522 -5 2400 44 2510 41 92 143 201 225 241 136 66
86 63 998 64 784 2 837 3 873 20 130 62 131 244 2 313 -27 14 -118 16 -853 17
-453 0 -824 0 -825 -1z"/>
</g>
</svg>
